# xmcd
#
# Track frame offsets: 
#        150
#        11126
#        22070
#        31268
#        43616
#        55901
#        67331
#        78575
#        87335
#        106282
#        128444
#        141544
#        154939
#        165648
#        177411
#        189070
#        198276
#        210453
#        223211
#        234818
#
# Disc length: 3253 seconds
#
# Revision: 0
# Processed by: cddbd v1.5.2PL0 Copyright (c) Steve Scherf et al.
# Submitted via: ExactAudioCopy v0.95a5
#
DISCID=180cb314
DTITLE=Duffy Power - Leapers And Sleepers (1962-1967) CD1
DYEAR=2002
DGENRE=Blues
TTITLE0=Cupid's Bow [EMI session October 1962]
TTITLE1=There You Go Again [EMI session October 1962]
TTITLE2=Times Are Getting Tougher Than Tough (stereo) [EMI session Oct
TTITLE2=ober 1967]
TTITLE3=It Ain't Necessarily So (stereo) [Parlophone R 4992 December 1
TTITLE3=962]
TTITLE4=If I Get Lucky Someday (stereo) [Parlophone R 4992 December 19
TTITLE4=62]
TTITLE5=I Saw Her Standing There (stereo) [original version February 1
TTITLE5=962]
TTITLE6=I Saw Her Standing There (stereo) [Parlophone R 5024 remake an
TTITLE6=d single version March 1962]
TTITLE7=Farewell Baby [Parlophone R 5024 March 1962]
TTITLE8=Shake Rattle and Roll (stereo) [1963 session]
TTITLE9=What'd I Say (stereo) [1963 session]
TTITLE10=I Got a Woman (stereo) [1963 session]
TTITLE11=Hey Girl [Parlophone R 5059 Jule 1963]
TTITLE12=Woman Made Trouble [Parlophone R 5059 Jule 1963]
TTITLE13=I'm Sitting on Top of the World [session Jule 1963]
TTITLE14=Parchman Farm [Parlophone R 5111 March 1964]
TTITLE15=Tired, Broke and Busted [Parlophone R 5111 March 1964]
TTITLE16=I Don't Care [Parlophone R 5169 August 1964]
TTITLE17=Where Am I [Parlophone R 5169 August 1964]
TTITLE18=Money Honey (stereo) [session 1964]
TTITLE19=Lawdy Miss Clawdy [session 1964]
EXTD=
EXTT0=
EXTT1=
EXTT2=
EXTT3=
EXTT4=
EXTT5=
EXTT6=
EXTT7=
EXTT8=
EXTT9=
EXTT10=
EXTT11=
EXTT12=
EXTT13=
EXTT14=
EXTT15=
EXTT16=
EXTT17=
EXTT18=
EXTT19=
PLAYORDER=
